<svg
    xmlns="http://www.w3.org/2000/svg"
    width="56"
    height="56"
    viewBox="0 0 56 56"
    fill="none"
>
    <path
        fill-rule="evenodd"
        clip-rule="evenodd"
        d="M28 56C43.464 56 56 43.464 56 28C56 12.536 43.464 0 28 0C12.536 0 0 12.536 0 28C0 43.464 12.536 56 28 56ZM24.7144 35.1427C24.7144 36.7141 23.4287 37.9998 21.8572 37.9998C20.2858 37.9998 19.0001 36.7141 19.0001 35.1427V20.857C19.0001 19.2856 20.2858 17.9998 21.8572 17.9998C23.4287 17.9998 24.7144 19.2856 24.7144 20.857V35.1427ZM30.4287 35.1427V20.857C30.4287 19.2856 31.7144 17.9998 33.2858 17.9998C34.8572 17.9998 36.143 19.2856 36.143 20.857V35.1427C36.143 36.7141 34.8572 37.9998 33.2858 37.9998C31.7144 37.9998 30.4287 36.7141 30.4287 35.1427Z"
        fill="#F9F4EE"
    />
</svg>
